<svg xmlns="http://www.w3.org/2000/svg" viewBox="0 0 235.41 34.94"><defs><style>.cls-1{fill:#298bd2;}.cls-2{fill:#f13c58;}.cls-3{fill:#f7c934;}.cls-4{fill:#6647a5;}.cls-5{fill:#292c4f;}</style></defs><title>Asset 1</title><g id="Layer_2" data-name="Layer 2"><g id="Layer_1-2" data-name="Layer 1"><rect class="cls-1" x="11.48" y="3.38" width="20.51" height="7.6" rx="3.8"/><rect class="cls-2" y="15.36" width="19.28" height="7.6" rx="3.8"/><rect class="cls-3" x="22.99" y="15.21" width="32.3" height="7.6" rx="3.8"/><rect class="cls-4" x="9.3" y="27.34" width="32.3" height="7.6" rx="3.8"/><path class="cls-5" d="M87.69,34.53a11.74,11.74,0,0,1-5.17-1.11,12.83,12.83,0,0,1-3.91-2.86,12.61,12.61,0,0,1-3.34-8.44A11.85,11.85,0,0,1,76.36,17a12.66,12.66,0,0,1,6.8-6.43,12.19,12.19,0,0,1,4.53-.9,12.5,12.5,0,0,1,4.71.92,12.2,12.2,0,0,1,4.07,2.71l.28.28-1.94,1.93a4.3,4.3,0,0,1-3.08,1.27A4.61,4.61,0,0,1,90,16.48,6.3,6.3,0,0,0,87.69,16a6.19,6.19,0,0,0-2.27.44,6,6,0,0,0-2,1.34,6.17,6.17,0,0,0-1.36,2,6.08,6.08,0,0,0-.45,2.3,5.82,5.82,0,0,0,.55,2.55,6.26,6.26,0,0,0,1.43,1.91,6.35,6.35,0,0,0,2,1.21,6.21,6.21,0,0,0,2.14.42,6.31,6.31,0,0,0,2.3-.44,4.59,4.59,0,0,1,1.73-.34,4.31,4.31,0,0,1,3.09,1.27l1.94,1.93-.28.28a12.2,12.2,0,0,1-4.07,2.71A12.49,12.49,0,0,1,87.69,34.53Z"/><path class="cls-5" d="M184.93,34.53V22.11a12.3,12.3,0,0,1,.56-3.71A13.22,13.22,0,0,1,187,15.16a12.62,12.62,0,0,1,4.44-4,13,13,0,0,1,1.91-.84,13.21,13.21,0,0,1,4.41-.69l-.31,6A7.61,7.61,0,0,0,193,17.83a6.59,6.59,0,0,0-1.29,1.94,5.89,5.89,0,0,0-.47,2.34v6.48a6.12,6.12,0,0,1-1.74,4.2A6.2,6.2,0,0,1,184.93,34.53Z"/><path class="cls-5" d="M140.13,34.53a12,12,0,0,1-4.8-1,12.58,12.58,0,0,1-4-2.65A12.72,12.72,0,0,1,128.71,27a12,12,0,0,1-1-4.86,12.17,12.17,0,0,1,1-4.84,12.36,12.36,0,0,1,2.67-4,12.87,12.87,0,0,1,3.95-2.65,12,12,0,0,1,4.82-1,12.49,12.49,0,0,1,6.08,1.6V5.94A6,6,0,0,1,152.15,0h.39V22.12a12.17,12.17,0,0,1-1,4.91,12.48,12.48,0,0,1-6.65,6.55A12.2,12.2,0,0,1,140.13,34.53Zm0-18.5a6,6,0,0,0-2.4.49,6.08,6.08,0,0,0-1.93,1.32,6.2,6.2,0,0,0-1.29,1.95,6,6,0,0,0-.47,2.33,5.9,5.9,0,0,0,.5,2.43,6.26,6.26,0,0,0,1.34,1.91,6.55,6.55,0,0,0,1.94,1.28,6,6,0,0,0,5.71-.57,6.25,6.25,0,0,0,2.2-2.69,6.07,6.07,0,0,0,.48-2.36,6,6,0,0,0-.46-2.35,6.66,6.66,0,0,0-1.29-1.93,6,6,0,0,0-1.94-1.32A5.94,5.94,0,0,0,140.13,16Z"/><path class="cls-5" d="M100,22.06a12.44,12.44,0,1,1,12.52,12.47A12.44,12.44,0,0,1,100,22.06Zm18.6,0a6.17,6.17,0,1,0-12.34,0,6.31,6.31,0,0,0,6.27,6.24A6.23,6.23,0,0,0,118.63,22.05Z"/><path class="cls-5" d="M208.7,13.32a4.79,4.79,0,0,0-4.65-3.64h-1.33V31.5a3.06,3.06,0,0,0,6,.93Z"/><path class="cls-5" d="M229.41,22.32a16,16,0,0,0,6-12.27h-3.07a4.23,4.23,0,0,0-4,2.79,8.86,8.86,0,0,1-3.45,4.6,8.75,8.75,0,0,1-3.45-4.6,4.23,4.23,0,0,0-4-2.79h-3.07a16,16,0,0,0,6,12.27,16,16,0,0,0-6,12.24h2.47a5.09,5.09,0,0,0,4.76-3.16,8.7,8.7,0,0,1,3.3-4.17,8.68,8.68,0,0,1,3.29,4.17,5.12,5.12,0,0,0,4.77,3.16h2.46A16,16,0,0,0,229.41,22.32Z"/><path class="cls-5" d="M163.66,33.58A12.61,12.61,0,0,1,159.71,31,12.32,12.32,0,0,1,157,27a12.18,12.18,0,0,1-1-4.91V0h.39a5.94,5.94,0,0,1,5.94,5.94V11.3a12.52,12.52,0,0,1,2.55-1.08,12.28,12.28,0,0,1,3.54-.52,12,12,0,0,1,4.82,1,12.71,12.71,0,0,1,3.94,2.65,12.55,12.55,0,0,1,2.68,4,12.16,12.16,0,0,1,1,4.84,12,12,0,0,1-1,4.86,13.08,13.08,0,0,1-2.67,3.93,12.81,12.81,0,0,1-3.95,2.65,12.08,12.08,0,0,1-4.8,1A12.28,12.28,0,0,1,163.66,33.58ZM166,16.52a6.08,6.08,0,0,0-1.93,1.32,6.47,6.47,0,0,0-1.29,1.93,6,6,0,0,0-.47,2.35,6.08,6.08,0,0,0,.49,2.36A6.23,6.23,0,0,0,165,27.17a6,6,0,0,0,5.72.57,6.37,6.37,0,0,0,1.93-1.28A5.93,5.93,0,0,0,174,24.55a5.74,5.74,0,0,0,.5-2.43,6,6,0,0,0-.46-2.33,6.37,6.37,0,0,0-1.29-1.95A6,6,0,0,0,168.44,16,6,6,0,0,0,166,16.52Z"/></g></g></svg>